<?xml version="1.0" standalone="no"?>
<!DOCTYPE svg PUBLIC "-//W3C//DTD SVG 20010904//EN"
 "http://www.w3.org/TR/2001/REC-SVG-20010904/DTD/svg10.dtd">
<svg version="1.0" xmlns="http://www.w3.org/2000/svg"
 width="2560.000000pt" height="2560.000000pt" viewBox="0 0 2560.000000 2560.000000"
 preserveAspectRatio="xMidYMid meet">
<metadata>
Created by potrace 1.14, written by Peter Selinger 2001-2017
</metadata>
<g transform="translate(0.000000,2560.000000) scale(0.100000,-0.100000)"
fill="#000000" stroke="none">
<path d="M15920 19038 c-190 -55 -352 -101 -360 -103 -8 -1 -188 -53 -400
-115 l-385 -111 -160 -7 c-147 -6 -469 -7 -1695 -2 -245 1 -499 -1 -565 -4
-183 -9 -323 -17 -358 -21 -18 -2 -61 -6 -97 -10 -251 -24 -572 -83 -770 -141
-47 -14 -92 -27 -100 -29 -81 -18 -343 -128 -515 -217 -433 -222 -846 -593
-1211 -1087 -30 -41 -56 -76 -58 -78 -3 -3 -352 239 -383 267 -7 5 -16 10 -22
10 -5 0 -11 3 -13 8 -1 4 -48 36 -103 71 -55 35 -116 74 -135 86 -109 71 -328
184 -481 251 -206 89 -482 162 -694 183 -91 8 -390 7 -455 -3 -19 -3 -60 -8
-90 -11 -30 -3 -71 -8 -90 -10 -19 -2 -57 -7 -85 -10 -27 -3 -61 -8 -75 -10
-34 -6 -76 -13 -130 -20 -36 -5 -251 -46 -410 -79 -204 -42 -735 -204 -875
-266 -11 -5 -81 -34 -156 -64 -75 -30 -159 -65 -185 -77 -88 -39 -507 -247
-574 -284 -105 -59 -194 -109 -215 -122 -11 -7 -27 -15 -35 -19 -15 -8 -225
-134 -375 -226 -44 -27 -132 -82 -195 -123 -63 -41 -144 -92 -180 -115 -36
-22 -152 -97 -259 -165 -106 -69 -197 -125 -202 -125 -5 0 -9 -4 -9 -9 0 -5
-8 -11 -17 -15 -10 -3 -54 -29 -98 -57 -82 -53 -281 -176 -338 -208 -18 -10
-75 -43 -127 -73 -219 -127 -438 -240 -450 -233 -5 3 -56 -18 -112 -47 -83
-42 -119 -68 -184 -133 -89 -88 -125 -137 -178 -240 -68 -135 -126 -313 -167
-518 l-24 -118 -65 -19 c-105 -31 -522 -151 -555 -160 -16 -4 -56 -15 -89 -25
-32 -9 -64 -18 -70 -19 -6 -1 -28 -8 -48 -15 l-38 -12 19 -27 c11 -15 90 -146
177 -292 87 -146 243 -407 347 -580 104 -173 198 -328 207 -345 35 -61 302
-501 319 -525 9 -14 52 -83 95 -155 43 -71 101 -168 130 -215 74 -121 335
-547 490 -798 72 -117 138 -225 147 -240 75 -126 145 -238 152 -240 4 -2 7 -7
7 -12 0 -4 57 -99 126 -211 69 -112 145 -235 169 -274 23 -38 107 -173 185
-300 78 -126 150 -242 159 -258 9 -15 162 -264 341 -554 179 -289 333 -540
343 -557 10 -17 25 -43 35 -58 9 -15 53 -86 97 -158 44 -72 87 -142 95 -155
63 -101 449 -735 461 -755 8 -14 17 -27 20 -30 3 -3 9 -12 12 -20 4 -8 16 -28
27 -45 10 -16 25 -41 33 -55 7 -14 58 -97 112 -185 126 -206 294 -485 349
-580 16 -27 35 -57 41 -65 7 -8 24 -36 38 -61 27 -50 284 -481 354 -596 36
-59 48 -71 61 -64 10 5 51 25 92 44 41 19 138 65 215 102 304 146 503 241 620
295 33 15 122 58 199 94 76 36 139 66 141 66 2 0 73 34 160 75 86 41 158 75
160 75 2 0 50 22 107 49 57 27 204 95 328 151 124 56 254 116 290 132 36 17
191 86 345 155 154 69 294 131 310 138 17 7 136 59 265 115 129 56 249 107
265 115 17 7 91 39 165 70 74 31 149 63 165 70 41 18 412 171 505 207 41 16
100 40 130 53 51 21 228 92 500 198 162 64 636 244 820 312 85 32 216 80 290
107 74 28 146 54 160 59 14 4 63 22 110 39 47 17 153 55 235 85 83 29 206 73
275 98 69 25 170 61 225 80 55 20 179 63 275 97 96 34 247 86 335 116 88 30
167 58 175 61 69 26 207 74 215 75 6 0 62 -11 125 -25 63 -14 149 -31 190 -37
41 -6 86 -13 100 -16 150 -24 615 -24 785 1 17 2 50 6 75 10 397 49 880 198
1291 399 199 97 409 218 529 305 77 55 186 137 204 153 50 45 94 67 146 73 30
3 66 8 80 10 44 6 114 16 141 21 15 2 47 6 70 9 45 5 104 13 149 20 14 2 50 7
80 11 30 4 57 8 60 9 3 1 37 5 75 10 39 5 72 9 75 10 3 1 34 5 70 9 36 5 74
10 84 12 17 3 118 17 216 30 19 2 50 7 68 10 17 3 49 7 70 9 20 3 48 7 62 10
14 2 52 7 85 11 33 3 62 8 65 9 3 2 37 6 75 10 39 4 72 9 75 10 3 2 30 6 60 9
30 4 66 9 80 11 14 3 45 7 70 10 25 3 77 10 115 16 39 5 88 12 110 15 82 10
103 13 255 34 85 12 171 23 190 26 69 8 115 15 140 19 37 6 198 28 305 40 55
7 96 13 135 20 14 2 48 7 75 10 28 3 97 12 155 20 58 8 128 17 155 20 28 3 59
8 70 10 11 3 45 7 75 10 30 3 66 8 80 10 14 1 45 6 70 9 25 3 79 10 120 16 85
12 111 15 230 30 47 6 101 13 120 16 19 2 51 7 70 9 19 2 91 11 160 20 69 9
143 18 165 21 22 2 75 9 117 15 98 13 120 15 188 24 30 3 66 8 80 10 14 2 54
7 90 10 36 4 74 9 84 11 11 2 42 6 70 9 28 3 67 8 86 10 53 7 291 36 325 40
50 5 138 15 175 20 19 3 55 8 80 10 25 3 61 7 80 10 19 2 60 7 90 10 30 4 66
8 80 10 14 2 59 7 100 10 41 4 77 8 80 10 3 2 39 6 80 10 41 4 89 9 105 11 17
2 53 6 80 9 28 3 66 7 85 10 19 3 60 7 90 10 30 2 71 7 90 9 19 3 64 8 100 11
36 4 76 8 90 10 29 5 77 10 220 25 58 6 121 13 140 15 38 4 149 16 190 20 14
2 59 6 100 9 41 4 91 9 110 11 19 3 60 7 90 10 30 3 71 7 90 10 19 2 67 7 105
10 87 7 174 16 194 20 9 2 19 4 23 4 7 1 3 48 -12 131 -29 157 -31 350 -5 555
22 178 22 416 0 550 -3 17 -7 44 -10 60 -4 24 -21 42 -82 85 -42 30 -81 60
-87 66 -6 6 -16 13 -21 15 -6 2 -77 54 -160 116 -82 61 -258 190 -390 287
-132 96 -251 183 -264 193 -127 95 -375 277 -452 333 -53 39 -102 76 -108 83
-7 10 -5 32 10 80 19 63 22 67 49 67 38 0 45 14 15 30 -15 8 -25 22 -25 36 0
19 -5 22 -27 20 -21 -2 -59 19 -148 79 -471 320 -582 396 -659 450 -36 25 -69
45 -75 45 -5 0 -11 4 -13 8 -1 5 -82 62 -178 127 -96 65 -222 151 -280 190
-58 39 -163 111 -235 160 -71 49 -170 116 -220 150 -49 34 -166 113 -260 176
-93 63 -172 116 -175 119 -3 3 -81 57 -175 120 -93 63 -174 118 -180 122 -5 5
-26 19 -45 31 -19 13 -98 66 -175 119 -169 115 -429 292 -583 396 -212 144
-505 354 -627 449 -5 5 -98 73 -205 153 -206 152 -636 472 -807 599 -56 42
-112 84 -125 93 -13 9 -124 92 -248 184 -124 91 -272 201 -329 243 -57 42
-169 125 -250 184 -80 60 -157 117 -171 127 -14 10 -45 33 -70 52 -25 18 -155
114 -290 213 -135 98 -272 199 -306 224 -33 25 -131 98 -218 161 -86 63 -181
132 -209 153 -29 21 -63 46 -76 55 -13 9 -35 27 -50 38 l-26 21 -345 -99z"/>
</g>
</svg>
